<?xml version="1.0" encoding="utf-8"?>
<!-- Generator: Adobe Illustrator 15.0.0, SVG Export Plug-In . SVG Version: 6.00 Build 0)  -->
<!DOCTYPE svg PUBLIC "-//W3C//DTD SVG 1.1//EN" "http://www.w3.org/Graphics/SVG/1.1/DTD/svg11.dtd">
<svg version="1.1" id="Layer_1" xmlns="http://www.w3.org/2000/svg" xmlns:xlink="http://www.w3.org/1999/xlink" x="0px" y="0px"
	 width="46px" height="46px" viewBox="0 0 46 46" enable-background="new 0 0 46 46" xml:space="preserve">
<g>
	<path fill="#FFFFFF" d="M23,0C10.297,0,0,10.297,0,23c0,12.702,10.297,23,23,23c12.702,0,23-10.298,23-23C46,10.297,35.702,0,23,0z
		 M23,42C12.523,42,4,33.477,4,23S12.523,4,23,4s19,8.523,19,19S33.477,42,23,42z"/>
	<polygon fill="#FFFFFF" points="19,13 21,13 21,37 25,37 25,10 19,10 	"/>
</g>
</svg>
