<?xml version="1.0" encoding="utf-8"?>
<!-- Generator: Adobe Illustrator 15.0.0, SVG Export Plug-In . SVG Version: 6.00 Build 0)  -->
<!DOCTYPE svg PUBLIC "-//W3C//DTD SVG 1.1//EN" "http://www.w3.org/Graphics/SVG/1.1/DTD/svg11.dtd">
<svg version="1.1" id="Layer_1" xmlns="http://www.w3.org/2000/svg" xmlns:xlink="http://www.w3.org/1999/xlink" x="0px" y="0px"
	 width="46px" height="46px" viewBox="0 0 46 46" enable-background="new 0 0 46 46" xml:space="preserve">
<path fill="#FFFFFF" d="M23,4c10.477,0,19,8.523,19,19s-8.523,19-19,19S4,33.477,4,23S12.523,4,23,4 M23,0C10.297,0,0,10.297,0,23
	c0,12.702,10.297,23,23,23c12.702,0,23-10.298,23-23C46,10.297,35.702,0,23,0L23,0z"/>
<g>
	<path fill="#FFFFFF" d="M20.855,18.73H17.27l-0.035-1.072c0-2.965,0.445-5.051,1.336-6.258c0.902-1.219,2.414-1.828,4.535-1.828
		c3.996,0,5.994,2.215,5.994,6.645c0,2.988-1.494,7.295-4.482,12.92l-2.162,4.061c-0.012,0.023-0.047,0.094-0.105,0.211
		s-0.141,0.287-0.246,0.51h6.715v3.129H16.9c0.199-0.445,0.615-1.33,1.248-2.654s1.494-3.111,2.584-5.361
		c0.926-1.969,1.699-3.639,2.32-5.01c0.621-1.372,1.09-2.497,1.406-3.375c0.633-1.758,0.949-3.275,0.949-4.553
		c0-2.25-0.779-3.375-2.338-3.375c-1.5,0-2.25,1.395-2.25,4.184l0.018,1.547L20.855,18.73z"/>
</g>
</svg>
