<?xml version="1.0" encoding="utf-8"?>
<!-- Generator: Adobe Illustrator 15.0.0, SVG Export Plug-In . SVG Version: 6.00 Build 0)  -->
<!DOCTYPE svg PUBLIC "-//W3C//DTD SVG 1.1//EN" "http://www.w3.org/Graphics/SVG/1.1/DTD/svg11.dtd">
<svg version="1.1" id="Layer_1" xmlns="http://www.w3.org/2000/svg" xmlns:xlink="http://www.w3.org/1999/xlink" x="0px" y="0px"
	 width="46px" height="46px" viewBox="0 0 46 46" enable-background="new 0 0 46 46" xml:space="preserve">
<g>
	<path fill="#FFFFFF" d="M23,0C10.297,0,0,10.297,0,23c0,12.702,10.297,23,23,23c12.702,0,23-10.298,23-23C46,10.297,35.702,0,23,0z
		 M23,42C12.523,42,4,33.477,4,23S12.523,4,23,4s19,8.523,19,19S33.477,42,23,42z"/>
	<path fill="#FFFFFF" d="M25.637,23.037c1.172-0.469,1.963-1.154,2.373-2.057c0.422-0.891,0.633-2.344,0.633-4.359
		c0-2.449-0.457-4.236-1.371-5.361s-2.367-1.688-4.359-1.688c-0.949,0-1.764,0.132-2.443,0.396s-1.239,0.677-1.679,1.239
		s-0.52,1.277-0.725,2.145S18,15.255,18,16.462V17h2.996l-0.018-0.734c0-2.402,0.703-3.558,2.109-3.558
		c1.418,0,2.127,1.429,2.127,4.242c0,1.699-0.252,2.69-0.756,3.3S22.994,21,21.576,21H21v3.514c0-0.023,0.408-0.045,0.561-0.062
		s0.31-0.025,0.438-0.025c1.16,0,1.998,0.363,2.495,1.09c0.498,0.727,0.752,1.916,0.752,3.568c0,0.914-0.045,1.693-0.139,2.338
		c-0.093,0.645-0.241,1.168-0.445,1.572s-0.467,0.697-0.788,0.879s-0.709,0.273-1.165,0.273c-0.701,0-1.252-0.275-1.654-0.826
		c-0.403-0.551-0.604-1.289-0.604-2.215c0-0.094,0.003-0.328,0.009-0.475S20.475,30,20.486,30h-3.445C17.029,30,17,30.344,17,30.473
		v0.193v0.281c0,4.277,1.875,6.416,5.602,6.416c2.18,0,3.791-0.645,4.822-1.934s1.55-3.299,1.55-6.029
		c0-1.992-0.239-3.439-0.72-4.342C27.773,24.145,26.902,23.47,25.637,23.037z"/>
</g>
</svg>
