<?xml version="1.0" encoding="utf-8"?>
<!-- Generator: Adobe Illustrator 15.0.0, SVG Export Plug-In . SVG Version: 6.00 Build 0)  -->
<!DOCTYPE svg PUBLIC "-//W3C//DTD SVG 1.1//EN" "http://www.w3.org/Graphics/SVG/1.1/DTD/svg11.dtd">
<svg version="1.1" id="Layer_1" xmlns="http://www.w3.org/2000/svg" xmlns:xlink="http://www.w3.org/1999/xlink" x="0px" y="0px"
	 width="118.195px" height="53.327px" viewBox="0 0 118.195 53.327" enable-background="new 0 0 118.195 53.327"
	 xml:space="preserve">
<path fill="#FFFFFF" d="M26.664,53.327C11.962,53.327,0,41.365,0,26.664C0,11.96,11.962,0,26.664,0
	c14.702,0,26.663,11.96,26.663,26.664C53.326,41.365,41.366,53.327,26.664,53.327z M26.664,3.363
	c-12.847,0-23.299,10.453-23.299,23.3s10.452,23.299,23.299,23.299s23.299-10.452,23.299-23.299S39.511,3.363,26.664,3.363z"/>
<path fill="#FFFFFF" d="M26.664,37.444c-3.738,0-6.78-3.041-6.78-6.778c0-3.738,3.042-6.78,6.78-6.78s6.778,3.042,6.778,6.78
	C33.442,34.403,30.401,37.444,26.664,37.444z M26.664,27.251c-1.883,0-3.415,1.532-3.415,3.415c0,1.882,1.532,3.413,3.415,3.413
	s3.414-1.531,3.414-3.413C30.078,28.783,28.546,27.251,26.664,27.251z"/>
<path fill="#FFFFFF" d="M26.622,41.269c-0.399,0-0.796-0.141-1.115-0.422L1.78,19.875c-0.697-0.616-0.762-1.678-0.147-2.375
	c0.616-0.696,1.678-0.762,2.375-0.146l22.614,19.988l22.612-19.988c0.696-0.615,1.758-0.549,2.374,0.146
	c0.615,0.696,0.55,1.759-0.146,2.375L27.735,40.847C27.417,41.128,27.019,41.269,26.622,41.269z"/>
<rect x="5.863" y="16.228" transform="matrix(0.1595 0.9872 -0.9872 0.1595 33.9915 -4.1044)" fill="#FFFFFF" width="27.087" height="3.364"/>
<rect x="32.239" y="4.368" transform="matrix(0.9872 0.1596 -0.1596 0.9872 3.2944 -5.1855)" fill="#FFFFFF" width="3.364" height="27.086"/>
<g>
	<path fill="#FFFFFF" d="M62.388,9.404H67.9c2.28,0,3.978,0.543,5.092,1.629c1.408,1.409,2.112,3.562,2.112,6.46
		c0,2.227-0.372,4.014-1.116,5.362c-0.744,1.348-1.809,2.183-3.189,2.505l5.715,15.113h-4.246L66.573,25.26v15.213h-4.186V9.404z
		 M66.573,23.168c1.623,0,2.77-0.375,3.44-1.127c0.672-0.751,1.006-2.019,1.006-3.803c0-0.966-0.07-1.791-0.21-2.475
		c-0.142-0.684-0.363-1.241-0.665-1.67s-0.69-0.745-1.167-0.946c-0.476-0.201-1.043-0.302-1.7-0.302h-0.704V23.168z"/>
	<path fill="#FFFFFF" d="M80.784,9.404h5.513c2.656,0,4.588,0.671,5.796,2.012c1.207,1.355,1.811,3.501,1.811,6.439
		c0,4.132-1.214,6.802-3.642,8.009c-1.221,0.551-2.986,0.826-5.292,0.826v13.784h-4.186V9.404z M84.97,23.107
		c1.729,0,2.924-0.348,3.581-1.046c0.671-0.71,1.007-1.972,1.007-3.782c0-1.852-0.323-3.207-0.966-4.065
		c-0.645-0.858-1.657-1.288-3.039-1.288H84.97V23.107z"/>
	<path fill="#FFFFFF" d="M99.622,9.404h3.582l2.737,12.678c0.334,1.583,0.64,3.168,0.915,4.759c0.275,1.589,0.525,3.257,0.755,5
		c0.026-0.227,0.047-0.404,0.061-0.532c0.013-0.127,0.026-0.219,0.04-0.272l0.583-3.561l0.523-3.381l0.463-2.234l2.435-12.456h3.622
		l2.857,31.07h-4.005l-0.703-10.545c-0.027-0.536-0.051-0.999-0.07-1.388c-0.021-0.39-0.03-0.711-0.03-0.966l-0.182-4.166
		l-0.101-3.823c0-0.027-0.004-0.083-0.011-0.171s-0.017-0.205-0.029-0.352l-0.102,0.624c-0.107,0.738-0.203,1.382-0.291,1.932
		c-0.088,0.55-0.164,1.013-0.231,1.388l-0.523,2.837l-0.201,1.067L109.1,40.474h-2.817l-2.454-11.712
		c-0.336-1.542-0.634-3.108-0.896-4.699c-0.261-1.589-0.499-3.256-0.714-5l-1.207,21.411h-3.943L99.622,9.404z"/>
</g>
</svg>
