<?xml version="1.0" encoding="utf-8"?>
<!-- Generator: Adobe Illustrator 15.0.0, SVG Export Plug-In . SVG Version: 6.00 Build 0)  -->
<!DOCTYPE svg PUBLIC "-//W3C//DTD SVG 1.1//EN" "http://www.w3.org/Graphics/SVG/1.1/DTD/svg11.dtd">
<svg version="1.1" id="Layer_1" xmlns="http://www.w3.org/2000/svg" xmlns:xlink="http://www.w3.org/1999/xlink" x="0px" y="0px"
	 width="39.982px" height="44.112px" viewBox="0 0 39.982 44.112" enable-background="new 0 0 39.982 44.112" xml:space="preserve">
<g>
	<path fill="none" d="M39.489,39.254L28.303,25.013h-0.809l-0.812,0.775l-1.193-1.576c2.652-2.569,4.294-6.094,4.294-9.982
		C29.782,6.385,23.103,0,14.891,0C6.68,0,0,6.385,0,14.23c0,7.847,6.68,14.232,14.891,14.232c2.433,0,4.726-0.573,6.757-1.564
		l1.49,1.623l-0.896,0.858v0.407c0,0,11.016,13.22,11.699,13.872c0.682,0.654,2.219,0.408,2.219,0.408s2.222-1.226,3.33-2.285
		C40.599,40.721,39.489,39.254,39.489,39.254z M5.26,14.23c0-5.073,4.32-9.204,9.631-9.204c5.312,0,9.631,4.13,9.631,9.204
		c0,5.077-4.319,9.205-9.631,9.205C9.58,23.435,5.26,19.307,5.26,14.23z"/>
</g>
</svg>
