<?xml version="1.0" encoding="utf-8"?>
<!-- Generator: Adobe Illustrator 15.0.0, SVG Export Plug-In . SVG Version: 6.00 Build 0)  -->
<!DOCTYPE svg PUBLIC "-//W3C//DTD SVG 1.1//EN" "http://www.w3.org/Graphics/SVG/1.1/DTD/svg11.dtd">
<svg version="1.1" id="Layer_1" xmlns="http://www.w3.org/2000/svg" xmlns:xlink="http://www.w3.org/1999/xlink" x="0px" y="0px"
	 width="39.982px" height="44.109px" viewBox="0 0 39.982 44.109" enable-background="new 0 0 39.982 44.109" xml:space="preserve">
<g>
	<path fill="#FFFFFF" d="M39.49,39.254c-2.198-2.798-4.396-5.597-6.595-8.395c-1.142-1.452-4.139-7.514-6.215-5.072
		c-2.398-1.776,0.648-3.471,1.609-5.356c1.416-2.78,1.843-6.012,1.188-9.062c-1.326-6.179-6.86-10.689-13.066-11.294
		C2.631-1.268-6.017,16.183,5.426,25.207c2.277,1.796,5.063,2.898,7.948,3.181c3.036,0.295,7.519-2.316,9.381-0.286
		c0.887,0.965-1.104,0.97-0.454,1.75c0.941,1.129,1.884,2.257,2.825,3.384c2.693,3.223,5.372,6.461,8.119,9.638
		C35.572,45.564,41.627,42.052,39.49,39.254L39.49,39.254z M5.26,14.23c0-11.934,19.268-11.936,19.268,0
		C24.526,26.167,5.26,26.166,5.26,14.23C5.26,9.159,5.26,19.308,5.26,14.23z"/>
</g>
</svg>
