<?xml version="1.0" encoding="utf-8"?>
<!-- Generator: Adobe Illustrator 15.0.0, SVG Export Plug-In . SVG Version: 6.00 Build 0)  -->
<!DOCTYPE svg PUBLIC "-//W3C//DTD SVG 1.1//EN" "http://www.w3.org/Graphics/SVG/1.1/DTD/svg11.dtd">
<svg version="1.1" id="Layer_1" xmlns="http://www.w3.org/2000/svg" xmlns:xlink="http://www.w3.org/1999/xlink" x="0px" y="0px"
	 width="30.996px" height="30.996px" viewBox="0 0 30.996 30.996" enable-background="new 0 0 30.996 30.996" xml:space="preserve">
<path fill-rule="evenodd" clip-rule="evenodd" fill="#373737" d="M15.498,0C6.938,0,0,6.938,0,15.498
	c0,8.559,6.938,15.498,15.498,15.498c8.559,0,15.498-6.938,15.498-15.498C30.996,6.938,24.057,0,15.498,0z M24.018,6.93
	c-0.063,0.079-0.244,0.253-0.543,0.519c-1.508,1.401-3.166,3.47-4.974,6.205s-3.319,5.607-4.535,8.617
	c-0.492,1.201-0.829,1.924-1.012,2.164c-0.183,0.251-0.762,0.376-1.735,0.376c-0.701,0-1.12-0.071-1.257-0.212
	c-0.138-0.142-0.415-0.529-0.831-1.16c-0.683-1.057-1.47-2.055-2.361-2.994c-0.45-0.475-0.674-0.832-0.674-1.072
	c0-0.334,0.245-0.672,0.734-1.018c0.491-0.346,0.897-0.518,1.222-0.518c0.415,0,0.926,0.229,1.532,0.686
	c0.607,0.459,1.284,1.328,2.032,2.607c0.809-1.819,1.679-3.573,2.613-5.264c0.934-1.689,1.938-3.293,3.015-4.812
	c1.075-1.518,1.897-2.56,2.464-3.124c0.566-0.563,0.959-0.892,1.175-0.988c0.218-0.096,0.697-0.196,1.439-0.301
	c0.742-0.104,1.25-0.156,1.525-0.156c0.175,0,0.264,0.067,0.264,0.2C24.111,6.77,24.079,6.852,24.018,6.93z"/>
</svg>
